<svg version="1.1" id="Layer_1" xmlns="http://www.w3.org/2000/svg" x="0" y="0" viewBox="0 0 428.9 152.3" xml:space="preserve"><ellipse fill="#FFF" cx="366.3" cy="147.2" rx="13.4" ry="5.1"/><path fill="#FFF" d="M427.5 13.3l-7.8 2.2c-1.6.4-2.9-.6-2.9-2.2L417 1c0-1.3-.3-1.4-.7-.1l-3.7 11c-.5 1.6-1.9 1.9-3.1.7l-3.3-3.3c-1.2-1.2-1.8-.8-1.4.8l1.2 4.4c.4 1.6-.6 2.9-2.2 2.9l-6.5.3c-2.9 0-3.1.8-.4 1.9l5.6 2c1.5.6 1.8 2.2.3 2.9l-2.2 1.7c-1.5.8-1.3 1.5.4 1.6l4-.4c.6 0 1.2.2 1.7.6-1 1.1-1.9 1.5-2.2 1.6-7.1 2.5-11.8 1.3-16.1-4.3-1.8-2.3-2.7-4.6-3.6-6.6-1.2-2.8-2.2-5.3-5.2-5.6-4.9-.5-8.3 3.6-14.7 18-22.7.3-20.8 6.7-21.2 7.8l7.5 91.4c0 1.1 2.6 6.4 15.2 6.4 14.3 0 15.2-6.4 15.2-6.4l7.2-86.5s0-.3-.1-.4c-.1-.1-.2-.1-.5 0-2.2 1.5-8.7 2.8-18.2 3-3.3 0-11.3-.9-11.6-1-.3-.1-.1 0-.5-.4-.2-.2-.3-.3-.1-.4.1-.1.2-.1.6-.1 1.7 0 6.1.3 8.1.3 12.1 0 22.3-3.1 22.6-6.8-.1-2.1-1.4-6.6-21-6.9 5.8-13 8.5-15.4 11.3-15.1 1.2.1 1.7 1.2 2.8 3.9.9 2 1.9 4.6 3.9 7.2 5.1 6.6 11.1 8.2 19.4 5.3.4-.2 1.7-.7 3-2 0 .1.1.2.1.3l.5 7.2c.3 1.6.8 1.7 1.3.1l2.2-5.8c.4-1.6 1.6-1.8 2.5-.5l5.7 7.9c1 1.3 1.4 1.1.9-.5l-2.7-9.6c-.5-1.6 2.3-2.4 3.9-2.5l3.2-.4c1.6-.1 1.9-.7.6-1.4l-3.4-2.1c-1.4-.8-2.5-2.6-1.2-3.7l6.1-4.9c1.2-1.1.9-1.6-.7-1.2z"/><g fill="#FFF"><path d="M0 77.5V33.4c0-1 .3-1.3 1.4-1.3h14.3c1 0 1.4.3 1.4 1.3V37c0 1-.3 1.3-1.4 1.3H8.1c-1.4 0-1.4 0-1.4 1.3v10c0 1.3 0 1.3 1.4 1.3h7.5c1 0 1.4.3 1.4 1.3V56c0 1-.3 1.3-1.4 1.3H8.1c-1.4 0-1.4 0-1.4 1.3v12.6c0 1.3 0 1.3 1.4 1.3h7.5c1 0 1.4.3 1.4 1.3v3.6c0 1-.3 1.3-1.4 1.3H1.4c-1.1.1-1.4-.2-1.4-1.2zM90.1 77.5V33.4c0-1 .3-1.3 1.4-1.3h4.1c1 0 1.4.3 1.4 1.3v37.8c0 1.4 0 1.4 1.4 1.4h7.5c1 0 1.4.3 1.4 1.3v3.6c0 1-.3 1.3-1.4 1.3H91.5c-1 0-1.4-.3-1.4-1.3zM227 32h17.7c1 0 1.4.3 1.4 1.3V37c0 1-.3 1.3-1.4 1.3h-4.1c-1.4 0-1.4 0-1.4 1.3v37.9c0 1-.3 1.3-1.4 1.3h-4.1c-1 0-1.4-.3-1.4-1.3V39.6c0-1.3 0-1.3-1.3-1.3h-4c-1 0-1.4-.3-1.4-1.3v-3.6c.1-1 .4-1.4 1.4-1.4zM261.9 78.8h-4.1c-1 0-1.4-.3-1.4-1.3V33.4c0-1 .3-1.3 1.4-1.3h4.1c1 0 1.4.3 1.4 1.3v44.1c0 1-.4 1.3-1.4 1.3zM33 59.9l-5.7 17.5c-.3 1.1.2 1.4.7 1.4h4.3c.9 0 1.2 0 1.5-1l2.3-8-3.1-9.9zM38.1 65.8l3.6 12c.3 1 .6 1 1.5 1h4.3c.5 0 1.1-.3.7-1.4l-7.1-22 7.1-22c.3-1.1-.2-1.4-.7-1.4h-4.3c-.9 0-1.2 0-1.5 1l-3.6 12c-.1.4-.5.4-.7 0l-3.5-12c-.3-1-.6-1-1.5-1h-4.3c-.5 0-1.1.3-.7 1.4L32 48l6.1 17.8zM69.7 38.2c1.5.5 2.6 1.9 2.6 4.6v.5c0 1 .3 1.3 1.4 1.3h4c1 0 1.4-.8 1.4-1.7-.6-7.2-4.6-10.4-9.3-10.9v6.2zM66.9 72.7c-1.5-.5-2.7-1.9-2.7-4.6V42.7c0-2.7 1.2-4.1 2.7-4.6v-6.3c-5.1.5-9.5 4.1-9.5 12.6v21.9c0 8.5 4.4 12.1 9.5 12.6v-6.2zM77.6 66.3h-4c-1 0-1.4.3-1.4 1.3v.5c0 2.6-1.1 4-2.6 4.6V79c4.7-.5 8.8-3.7 9.3-10.9.2-1-.2-1.8-1.3-1.8zM133.5 74.2l.6 3.6c.2 1 .6 1 1.5 1h4.1c.7 0 1.4 0 1.2-1.1l-8.6-44.5c-.2-1-.4-1.2-1.5-1.2h-3.7c-1.1 0-1.3.2-1.5 1.2L117 77.7c-.2 1.1.5 1.1 1.2 1.1h4.1c.9 0 1.3 0 1.5-1l.6-3.6c.3-1.3.3-1.3 1.6-1.3h4.4l-1.1-6.3H127c-1.4 0-1.4 0-1.2-1.3l2.8-16.3c.1-.3.5-.3.5 0l2.8 16.3 1.6 8.9zM183.2 32h-3.1c-.8 0-1.1.2-1.3.8l-9.2 28.7 3 9.3 4.7-14.7c.1-.3.4-.3.4 0v21.5c0 1 .3 1.3 1.4 1.3h4.1c1 0 1.4-.3 1.4-1.3V33.4c-.1-1-.4-1.4-1.4-1.4zM171.2 75.4l-.8 2.5c-.3.9-.8.9-1.5.9h-1.5c-.7 0-1.2 0-1.5-.9L159 56c-.1-.3-.4-.3-.4 0v21.5c0 1-.3 1.3-1.4 1.3h-4.1c-1 0-1.4-.3-1.4-1.3V33.4c0-1 .3-1.3 1.4-1.3h3.1c.8 0 1.1.2 1.3.8l10.4 32.5 3.3 10zM212 74.2l.6 3.6c.2 1 .6 1 1.5 1h4.1c.7 0 1.4 0 1.2-1.1l-8.6-44.5c-.2-1-.4-1.2-1.5-1.2h-3.7c-1.1 0-1.3.2-1.5 1.2l-8.6 44.5c-.2 1.1.5 1.1 1.2 1.1h4.1c.9 0 1.3 0 1.5-1l.6-3.6c.3-1.3.3-1.3 1.6-1.3h4.4l-1.1-6.3h-2.3c-1.4 0-1.4 0-1.2-1.3l2.8-16.3c.1-.3.5-.3.5 0l2.8 16.3 1.6 8.9z"/><g><path d="M284.1 72.7c-1.5-.5-2.6-1.9-2.6-4.6V42.7c0-2.7 1.2-4.1 2.6-4.6v-6.3c-5.1.6-9.4 4.2-9.4 12.6v21.9c0 8.4 4.4 12.1 9.4 12.6v-6.2zM286.9 31.8v6.3c1.5.5 2.7 1.9 2.7 4.6v25.4c0 2.7-1.2 4.1-2.7 4.6V79c5.1-.5 9.5-4.2 9.5-12.6V44.5c0-8.5-4.4-12.1-9.5-12.7z"/></g><g><path d="M332.6 76.7v.8c0 1-.3 1.3-1.4 1.3h-3.1c-.6 0-1.1-.1-1.4-.8L315 51c-.2-.5-.5-.3-.5.1v26.4c0 1-.3 1.3-1.4 1.3H309c-1 0-1.4-.3-1.4-1.3V33.4c0-1 .3-1.3 1.4-1.3h3.1c.7 0 1.1.1 1.4.9l11.7 27 7.4 16.7zM332.6 69.6V33.4c0-1-.3-1.3-1.4-1.3h-4.1c-1 0-1.4.3-1.4 1.3V54l6.9 15.6z"/></g></g><g fill="#FFF"><path d="M217.6 136V91.9c0-1 .3-1.3 1.4-1.3h.8c1 0 1.4.3 1.4 1.3v40.9c0 1.3 0 1.3 1.4 1.3h10.8c1 0 1.4.3 1.4 1.3v.5c0 1-.3 1.3-1.4 1.3h-14.3c-1.2.2-1.5-.2-1.5-1.2zM263 131.2l1 5.2c.2 1 .6 1 1.5 1h.9c.7 0 1.4 0 1.2-1.1L259 91.7c-.2-1-.4-1.2-1.5-1.2h-1.8c-1.1 0-1.3.2-1.5 1.2l-8.5 44.5c-.2 1.1.5 1.1 1.2 1.1h.9c.9 0 1.3 0 1.5-1l1-5.2c.3-1.3.2-1.3 1.6-1.3h8l-.6-3.2h-6.7c-1.4 0-1.4 0-1.2-1.3l5-28.2c.1-.3.5-.3.5 0l5 28.2 1.1 5.9zM282.6 137.4h-2.2c-1 0-1.4-.3-1.4-1.3V91.9c0-1 .3-1.3 1.4-1.3h2.2v46.8zM299.4 102.8v-.9c0-8.2-4.5-11.4-10.2-11.4h-3.8v3.2h3.6c3.7 0 6.9 2.2 6.9 8.2v.9c0 5.9-3.1 8.2-6.7 8.2h-3.8v3.2h3.8c3.6.1 6.7 2.4 6.7 8.2v3.4c0 6-3.2 8.2-6.9 8.2h-3.6v3.2h3.8c5.6 0 10.2-3.1 10.2-11.4v-3.4c0-4.8-1.6-7.9-4.1-9.6-.2-.1-.2-.4 0-.5 2.6-1.6 4.1-4.6 4.1-9.5z"/><g><path d="M320.2 134.2c-3.2-.7-5.4-3.3-5.6-6.8 0-1.2-.4-1.5-1.3-1.5h-1.2c-1.2 0-1.2.9-1.2 1.8.4 5 4.2 9.1 9.2 9.8v-3.3zM322.9 93.6c2.8.6 4.7 2.9 4.9 6.1.1.8.5.9 1.4.9h.5c1 0 1.4-.1 1.4-.9-.2-5.4-4.1-8.8-8.3-9.3v3.2zM332.6 125.5c-.7-5.7-5.3-10-10-14.4-3.8-3.6-7.1-6.8-7.3-10.6-.2-3.9 2.1-6.3 4.8-6.9v-3.3c-5.1.7-8.5 5.1-8.2 10.5.3 5.8 4.6 9.1 9 13.4 3.7 3.7 7.5 7.1 8.1 11.3.7 4.1-2 8.1-6.2 8.7v3.2c6.5-.4 10.4-6.2 9.8-11.9z"/></g></g><path fill="#FFF" d="M393.6 141.6c3 0 5.4 2.4 5.4 5.4s-2.4 5.4-5.4 5.4c-3 0-5.4-2.4-5.4-5.4s2.5-5.4 5.4-5.4zm0 9.8c2.5 0 4.5-2 4.5-4.5s-2-4.5-4.5-4.5-4.5 2-4.5 4.5 2.1 4.5 4.5 4.5zm-1.8-6.9c0-.2.1-.3.3-.3h2.1c.9 0 1.8.6 1.8 1.7s-.8 1.5-1.2 1.6l.9 1.8c.1.2 0 .4-.3.4h-.5c-.1 0-.2-.1-.3-.2l-.8-1.9h-1.1v1.8c0 .1-.1.3-.3.3h-.4c-.2 0-.3-.1-.3-.3v-4.9zm2.4 2.2c.6 0 .9-.4.9-.9s-.3-.9-.9-.9h-1.5v1.7h1.5z"/></svg>